HIERARCHY
ROOT Hips
{
	OFFSET -0.001795 -0.223333 0.028219
	CHANNELS 6 Xposition Yposition Zposition Zrotation Yrotation Xrotation 
	JOINT LeftUpLeg
	{
		OFFSET 0.069520 -0.091406 -0.006815
		CHANNELS 3 Zrotation Yrotation Xrotation
		JOINT LeftLeg
		{
			OFFSET 0.034277 -0.375199 -0.004496
			CHANNELS 3 Zrotation Yrotation Xrotation
			JOINT LeftFoot
			{
				OFFSET -0.013596 -0.397961 -0.043693
				CHANNELS 3 Zrotation Yrotation Xrotation
				JOINT LeftToe
				{
					OFFSET 0.026358 -0.055791 0.119288
					CHANNELS 3 Zrotation Yrotation Xrotation
					End Site
					{
						OFFSET 0.000000 0.000000 0.000000
					}
				}
			}
		}
	}
	JOINT RightUpLeg
	{
		OFFSET -0.067670 -0.090522 -0.004320
		CHANNELS 3 Zrotation Yrotation Xrotation
		JOINT RightLeg
		{
			OFFSET -0.038290 -0.382569 -0.008850
			CHANNELS 3 Zrotation Yrotation Xrotation
			JOINT RightFoot
			{
				OFFSET 0.015774 -0.398415 -0.042312
				CHANNELS 3 Zrotation Yrotation Xrotation
				JOINT RightToe
				{
					OFFSET -0.025372 -0.048144 0.123348
					CHANNELS 3 Zrotation Yrotation Xrotation
					End Site
					{
						OFFSET 0.000000 0.000000 0.000000
					}
				}
			}
		}
	}
	JOINT Spine
	{
		OFFSET -0.002533 0.108963 -0.026696
		CHANNELS 3 Zrotation Yrotation Xrotation
		JOINT Spine1
		{
			OFFSET 0.005487 0.135180 0.001092
			CHANNELS 3 Zrotation Yrotation Xrotation
			JOINT Spine2
			{
				OFFSET 0.001457 0.052922 0.025425
				CHANNELS 3 Zrotation Yrotation Xrotation
				JOINT Neck
				{
					OFFSET -0.002778 0.213870 -0.042857
					CHANNELS 3 Zrotation Yrotation Xrotation
					JOINT Head
					{
						OFFSET 0.005152 0.064970 0.051349
						CHANNELS 3 Zrotation Yrotation Xrotation
						End Site
						{
							OFFSET 0.000000 0.000000 0.000000
						}
					}
				}
				JOINT LeftShoulder
				{
					OFFSET 0.078845 0.121749 -0.034090
					CHANNELS 3 Zrotation Yrotation Xrotation
					JOINT LeftArm
					{
						OFFSET 0.090977 0.030469 -0.008868
						CHANNELS 3 Zrotation Yrotation Xrotation
						JOINT LeftForeArm
						{
							OFFSET 0.259612 -0.012772 -0.027456
							CHANNELS 3 Zrotation Yrotation Xrotation
							JOINT LeftHand
							{
								OFFSET 0.249234 0.008986 -0.001171
								CHANNELS 3 Zrotation Yrotation Xrotation
								End Site
								{
									OFFSET 0.000000 0.000000 0.000000
								}
							}
						}
					}
				}
				JOINT RightShoulder
				{
					OFFSET -0.081759 0.118833 -0.038615
					CHANNELS 3 Zrotation Yrotation Xrotation
					JOINT RightArm
					{
						OFFSET -0.096012 0.032551 -0.009143
						CHANNELS 3 Zrotation Yrotation Xrotation
						JOINT RightForeArm
						{
							OFFSET -0.253742 -0.013329 -0.021401
							CHANNELS 3 Zrotation Yrotation Xrotation
							JOINT RightHand
							{
								OFFSET -0.255298 0.007772 -0.005559
								CHANNELS 3 Zrotation Yrotation Xrotation
								End Site
								{
									OFFSET 0.000000 0.000000 0.000000
								}
							}
						}
					}
				}
			}
		}
	}
}
MOTION
Frames: 6
Frame Time: 0.050000
0.056372 0.936997 0.259894 -0.689609 3.836339 5.878180 1.491127 -0.376565 -4.283833 3.052015 -0.357984 0.770770 -2.018088 -3.486782 1.396938 0.000000 0.000000 0.000000 0.745282 1.002794 -9.698187 -4.218741 1.089912 8.690179 0.189046 0.254877 0.513115 0.000000 0.000000 0.000000 -3.467102 0.146328 -11.314680 3.035662 -1.313427 -1.884687 1.335644 -4.954363 -1.991391 -0.465376 1.266892 -18.250097 0.000000 0.000000 0.000000 -5.310254 -10.925873 4.048050 -74.296397 -65.910522 44.031444 122.064557 -36.957798 -56.216929 0.000000 0.000000 0.000000 2.177997 15.328727 5.184855 67.243483 64.561431 36.476775 -122.912942 40.367608 -63.527152 0.000000 0.000000 0.000000 
0.056521 0.937462 0.259291 -0.966818 3.663181 6.070514 1.848490 -0.402433 -4.634105 2.939550 -0.380372 1.321338 -1.829863 -3.161669 1.286077 0.000000 0.000000 0.000000 1.308289 1.045978 -9.824524 -4.357287 1.127676 8.849550 0.544403 1.231688 0.369886 0.000000 0.000000 0.000000 -3.194268 0.172533 -11.527729 3.280701 -1.420446 -1.957913 1.584924 -5.193650 -1.758310 -0.436301 1.186469 -17.745811 0.000000 0.000000 0.000000 -5.587352 -11.381150 4.293552 -71.470064 -67.130838 43.143727 123.031238 -34.880712 -53.863117 0.000000 0.000000 0.000000 1.948607 14.962983 5.022764 69.799939 65.407030 38.787844 -124.774301 39.680362 -64.584879 0.000000 0.000000 0.000000 
0.056646 0.937706 0.258574 -1.069184 3.739282 6.043143 1.899586 -0.420305 -4.877709 3.002658 -0.411674 1.706590 -1.817030 -3.207786 1.159350 0.000000 0.000000 0.000000 1.540700 1.052581 -9.769325 -4.234828 1.126258 9.161603 0.462460 1.178864 0.050553 0.000000 0.000000 0.000000 -3.034527 0.182104 -11.412467 3.216623 -1.381035 -2.094237 1.946706 -5.337921 -1.522769 -0.662692 1.281917 -17.545541 0.000000 0.000000 0.000000 -6.044938 -11.771796 4.506777 -69.787392 -68.118031 42.796617 124.966635 -33.295383 -53.171983 0.000000 0.000000 0.000000 2.669781 14.685528 4.912622 71.958539 65.798681 40.599431 -126.723731 38.688955 -65.203295 0.000000 0.000000 0.000000 
0.056672 0.937870 0.257528 -1.266710 3.624365 6.123995 2.034266 -0.442988 -5.197849 3.054036 -0.455402 2.290300 -1.746624 -3.138891 1.028574 0.000000 0.000000 0.000000 1.724145 1.117812 -10.274486 -3.991750 1.116156 9.683069 0.595298 1.499595 0.096201 0.000000 0.000000 0.000000 -2.830270 0.200958 -11.609384 3.395371 -1.451052 -2.253529 2.026913 -5.497478 -0.901386 -0.313817 1.058971 -17.571784 0.000000 0.000000 0.000000 -6.287745 -11.733926 4.540056 -68.589874 -68.624231 42.348756 126.667311 -32.385626 -53.168005 0.000000 0.000000 0.000000 3.024849 14.683708 4.899768 74.909467 66.269711 43.050121 -129.019263 37.966672 -66.592669 0.000000 0.000000 0.000000 
0.056596 0.937667 0.255901 -1.442169 3.657080 6.093912 2.080787 -0.467405 -5.537654 3.236937 -0.528589 3.055842 -1.746235 -3.290379 0.770728 0.000000 0.000000 0.000000 2.030993 1.171004 -10.589404 -4.028419 1.150457 10.087275 0.482297 1.239429 0.032578 0.000000 0.000000 0.000000 -2.624688 0.214149 -11.407840 3.318794 -1.416168 -2.252906 2.171570 -5.320713 -0.615675 -0.172058 1.008483 -17.925496 0.000000 0.000000 0.000000 -6.522215 -11.864444 4.596420 -68.815803 -69.166360 42.934944 127.649107 -31.807598 -53.243637 0.000000 0.000000 0.000000 3.825997 14.648911 4.904592 76.676191 66.059455 44.238242 -130.949503 37.702480 -68.244983 0.000000 0.000000 0.000000 
0.056309 0.937281 0.253857 -1.561205 3.740274 6.030751 2.230669 -0.487646 -5.844318 3.303601 -0.580803 3.703430 -1.820484 -3.729145 0.305587 0.000000 0.000000 0.000000 1.978734 1.194067 -10.820922 -3.634000 1.092362 10.414463 0.165113 0.591018 -0.325355 0.000000 0.000000 0.000000 -2.546773 0.216077 -11.190489 3.255649 -1.428057 -1.691123 2.412262 -5.079070 -0.767589 -0.248120 1.084946 -18.177210 0.000000 0.000000 0.000000 -7.523803 -11.730243 4.575056 -67.064022 -68.674370 41.065253 128.621669 -31.883158 -54.423661 0.000000 0.000000 0.000000 4.257876 15.014080 5.065726 76.144757 65.916077 43.820139 -131.759757 36.823383 -67.702964 0.000000 0.000000 0.000000 
